<?xml version="1.0" standalone="no"?><!DOCTYPE svg PUBLIC "-//W3C//DTD SVG 1.1//EN" "http://www.w3.org/Graphics/SVG/1.1/DTD/svg11.dtd"><svg t="1595077948466" class="icon" viewBox="0 0 1024 1024" version="1.1" xmlns="http://www.w3.org/2000/svg" p-id="5543" xmlns:xlink="http://www.w3.org/1999/xlink" width="48" height="48"><defs><style type="text/css">@font-face { font-family: element-icons; src: url("chrome-extension://moombeodfomdpjnpocobemoiaemednkg/fonts/element-icons.woff") format("woff"), url("chrome-extension://moombeodfomdpjnpocobemoiaemednkg/fonts/element-icons.ttf ") format("truetype"); }
</style></defs><path d="M734.207227 628.8291l236.062911 0c1.823992-16.383924 2.559988-33.087847 2.559988-50.207768 0-80.22363-21.535901-155.455283-59.135727-220.254984 38.879821-103.295524 37.503827-190.975119-14.559933-243.390877-49.503772-49.279773-182.303159-41.27981-332.414467 25.183884-11.103949-0.831996-22.303897-1.279994-33.631845-1.279994-206.04705 0-378.910252 141.791346-426.718032 332.862465 64.639702-82.751618 132.639388-142.751342 223.486969-186.43114-8.255962 7.743964-56.44774 55.647743-64.575702 63.775706-239.550895 239.486895-315.102547 552.317452-233.790922 633.597078 61.791715 61.759715 173.759199 51.327763 302.366605-11.647946 59.807724 30.463859 127.487412 47.61578 199.231081 47.61578 193.119109 0 356.798354-124.319427 416.094081-297.438628l-237.854903 0c-32.735849 60.383721-96.735554 101.471532-170.207215 101.471532s-137.471366-41.08781-170.207215-101.471532c-14.559933-27.263874-22.911894-58.55973-22.911894-91.647577l0-0.735997 386.270218 0zM348.289007 512.797635c5.471975-97.119552 86.207602-174.591195 184.767148-174.591195s179.327173 77.471643 184.767148 174.591195l-369.534296 0zM896.958476 163.807244c33.535845 33.887844 32.671849 96.223556 3.999982 174.015197-49.119773-74.911654-120.511444-133.951382-204.799055-167.647227 90.111584-38.623822 163.391246-43.743798 200.767074-6.367971zM93.474182 967.259539c-42.783803-42.783803-29.887862-132.607388 25.215884-240.830889 34.303842 96.255556 101.151533 177.087183 187.327136 229.150943-95.42356 43.3278-173.5352 50.687766-212.575019 11.679946z" p-id="5544" fill="#1296db"></path></svg>